<svg width="100" height="100" viewBox="0 0 100 100" fill="none" xmlns="http://www.w3.org/2000/svg">
<g clip-path="url(#clip0_3044_40869)">
<g clip-path="url(#clip1_3044_40869)">
<mask id="mask0_3044_40869" style="mask-type:alpha" maskUnits="userSpaceOnUse" x="-1" y="5" width="97" height="90">
<path fill-rule="evenodd" clip-rule="evenodd" d="M73.3299 17.1852C56.8587 5.26469 34.8935 1.10329 18.3256 12.8889C1.07949 25.1569 -5.19498 48.0302 1.97608 67.9427C8.61743 86.3843 28.2463 94.9118 47.8473 94.8645C67.6076 94.8169 87.9301 86.4964 94.0895 67.7205C100.365 48.5899 89.6402 28.9892 73.3299 17.1852Z" fill="url(#paint0_linear_3044_40869)"/>
</mask>
<g mask="url(#mask0_3044_40869)">
<rect x="-5.91553" y="4.12109" width="110.806" height="97.6302" fill="#DFD2CC"/>
<path d="M61.2171 48.2911C58.1627 52.8901 44.4982 41.501 44.2288 44.8869C44.6543 47.238 47.4127 50.2452 50.8339 52.8426C62.3966 61.6211 79.5995 69.5641 66.6481 73.5002C54.8212 77.0945 44.6859 73.3142 31.8354 63.6051C9.16036 36.4095 -9.0435 36.4202 -12.9839 34.2188C-29.1451 17.9515 2.95772 8.22856 11.291 10.4488C18.0247 12.2429 65.6925 41.5525 61.2171 48.2911Z" fill="#D4A181"/>
<path d="M16.1697 52.9066L63.5432 39.5625C63.5432 39.5625 70.0079 45.5542 74.843 49.5592C79.678 53.5641 88.3051 60.0731 88.3051 60.0731L40.9316 73.4171C40.9316 73.4171 33.481 68.0449 28.6459 64.04C23.8109 60.035 16.1697 52.9066 16.1697 52.9066Z" fill="#FCFCFC"/>
<path d="M18.5162 53.1541L63.1653 40.6602C63.1653 40.6602 70.0667 46.9212 74.0382 50.2108C78.0097 53.5004 83.3814 57.617 83.3814 57.617L38.6324 70.1425C38.6324 70.1425 32.6413 65.7707 28.6699 62.4811C24.6984 59.1915 18.5162 53.1541 18.5162 53.1541Z" fill="#FF9B81"/>
<path d="M21.2036 53.877L46.7853 46.6712L56.9985 55.1309L31.4168 62.3367L21.2036 53.877Z" fill="#FCFCFC"/>
<path d="M43.7202 65.7012L55.4057 62.4096L57.0351 63.7593L45.3497 67.0509L43.7202 65.7012Z" fill="#FCFCFC"/>
<path d="M48.8882 46.6602L63.1002 42.6569L72.7897 50.6828L58.5776 54.686L48.8882 46.6602Z" fill="#FCFCFC"/>
<path fill-rule="evenodd" clip-rule="evenodd" d="M68.8281 55.0507C68.9078 55.0615 69.0007 55.0828 69.1053 55.1122C69.4603 55.2124 69.7646 55.3877 70.0224 55.5948C70.2811 55.8028 70.502 56.0501 70.6871 56.3046C70.7625 56.4084 70.8324 56.5139 70.8967 56.6191C70.8974 56.6195 70.8982 56.6199 70.8989 56.6203C71.1099 56.7304 71.3084 56.826 71.4803 56.8988C71.6565 56.9734 71.79 57.0176 71.8747 57.0337C71.9669 57.0511 72.0109 57.0471 72.0311 57.042C72.0501 57.0371 72.0725 57.0248 72.0837 56.9916C72.088 56.9791 72.0902 56.9649 72.0903 56.9489C72.0156 56.9025 71.9359 56.852 71.8509 56.7972C71.2463 56.408 70.8063 56.0961 70.503 55.8565C70.2033 55.6198 70.0271 55.4458 69.9651 55.3351C69.9492 55.3066 69.9384 55.2784 69.938 55.2523C69.9375 55.2265 69.9472 55.1966 69.9848 55.1736C70.0689 55.1222 70.207 55.1464 70.2838 55.1661C70.373 55.1891 70.4749 55.2288 70.5829 55.2788C70.6929 55.3297 70.8174 55.3952 70.9524 55.4739C71.4969 55.7912 71.9895 56.2438 72.2308 56.5972C72.3066 56.7082 72.3619 56.8157 72.382 56.9087C72.5313 57.0001 72.6555 57.0719 72.7575 57.1265C72.8325 57.1667 72.8933 57.1964 72.9415 57.2174C72.9236 57.1781 72.8908 57.1245 72.843 57.0576C72.711 56.8731 72.4889 56.6202 72.2665 56.3718C72.2293 56.3302 72.1921 56.2888 72.1553 56.2478C71.9745 56.0465 71.8044 55.8572 71.7024 55.7271C71.6427 55.6511 71.5948 55.5923 71.5605 55.5503C71.5577 55.547 71.5551 55.5438 71.5526 55.5407C71.539 55.5242 71.5276 55.5103 71.5189 55.4994C71.5103 55.4886 71.4994 55.4751 71.4937 55.4652L71.4936 55.4651C71.4924 55.463 71.4875 55.4547 71.4858 55.4448L71.4858 55.4447C71.4851 55.441 71.4823 55.425 71.4959 55.4084C71.5039 55.3987 71.5199 55.386 71.5502 55.3783C71.5814 55.3702 71.6148 55.3707 71.6413 55.3741C71.6844 55.3797 71.7137 55.3934 71.7199 55.3962L71.7203 55.3964C71.7306 55.4012 71.738 55.4056 71.7415 55.4078C71.7489 55.4124 71.7546 55.4165 71.7573 55.4186C71.768 55.4267 71.7819 55.4388 71.7955 55.4506C71.8082 55.4618 71.822 55.4741 71.8382 55.4884C71.8641 55.5114 71.8959 55.5396 71.9387 55.577C72.1405 55.7537 72.5265 56.0819 73.1533 56.5545C73.0381 56.3619 72.9183 56.1523 72.7942 55.9248C72.7738 55.8874 72.8017 55.8524 72.8615 55.8402C72.9214 55.8281 72.9977 55.8419 73.0458 55.8738C73.1567 55.947 73.2911 56.0298 73.4257 56.1037C73.5624 56.1788 73.6909 56.2402 73.791 56.275C73.8341 56.29 73.8631 56.2969 73.8799 56.2996C73.883 56.2941 73.8867 56.2837 73.8868 56.2655C73.8869 56.2338 73.8756 56.1867 73.8458 56.1199C73.8303 56.085 73.8565 56.0531 73.9109 56.0407C73.9653 56.0283 74.0357 56.0381 74.0859 56.065C74.1774 56.1143 74.2882 56.1654 74.3984 56.2045C74.5118 56.2448 74.6077 56.2663 74.6766 56.2692C74.7312 56.2715 74.7796 56.2631 74.8158 56.2211C74.8572 56.1732 74.88 56.0823 74.8446 55.9226C74.8375 55.8909 74.8652 55.8637 74.9155 55.8529C74.9657 55.8422 75.0292 55.8499 75.0778 55.8727C75.1492 55.9062 75.235 55.9401 75.3193 55.9647C75.4062 55.9901 75.4762 56.0013 75.5242 56.0006C75.5614 56.0001 75.5959 55.9929 75.6215 55.961C75.6508 55.9244 75.6668 55.8553 75.6351 55.7335L75.9322 55.7435C75.9671 55.8774 75.9575 55.9788 75.901 56.0493C75.8408 56.1246 75.7292 56.1611 75.5921 56.163C75.4658 56.1648 75.3332 56.1371 75.2212 56.1044C75.2013 56.0986 75.1816 56.0924 75.1621 56.0861C75.164 56.1818 75.1409 56.2569 75.0927 56.3127C75.0165 56.4009 74.8793 56.438 74.7145 56.4312C74.5639 56.4249 74.4065 56.3828 74.2721 56.3351C74.2434 56.3249 74.2149 56.3142 74.1869 56.303C74.1857 56.3497 74.1688 56.3945 74.1172 56.4258C74.058 56.4617 73.9721 56.4687 73.8891 56.4599C73.8128 56.4518 73.7361 56.4304 73.6679 56.4067C73.5357 56.3608 73.3889 56.2896 73.251 56.2145C73.4096 56.4933 73.5602 56.7406 73.7014 56.9589C73.7401 56.9869 73.7795 57.0153 73.8195 57.044C74.3468 57.4225 74.6884 57.767 74.8725 58.0159C74.9639 58.1394 75.0196 58.2435 75.0368 58.318C75.045 58.3537 75.0469 58.3919 75.0271 58.4225C75.0168 58.4386 74.9971 58.4577 74.959 58.4703C74.9176 58.4839 74.8678 58.4853 74.8203 58.4784C74.7401 58.4667 74.6736 58.4327 74.6283 58.4058C74.5766 58.3749 74.5212 58.334 74.4625 58.2841C74.3447 58.1838 74.2018 58.0373 74.0371 57.8383C73.8626 57.6273 73.6617 57.355 73.4387 57.0124C73.0884 56.7584 72.793 56.535 72.5468 56.343C72.7634 56.5852 72.9853 56.8383 73.1205 57.0274C73.1884 57.1223 73.2409 57.2096 73.2541 57.273C73.2603 57.3026 73.262 57.3433 73.2248 57.3745C73.2038 57.392 73.1713 57.4057 73.1273 57.4113C73.0853 57.4167 73.0429 57.4134 73.0071 57.4075C72.9397 57.3965 72.8709 57.3723 72.806 57.3451C72.7379 57.3165 72.6592 57.2781 72.5693 57.2299C72.5036 57.1947 72.4305 57.1536 72.3494 57.106C72.3202 57.1424 72.2731 57.1731 72.2016 57.1915C72.0974 57.2183 71.9674 57.2121 71.8298 57.1861C71.6847 57.1586 71.5094 57.0961 71.3272 57.019C71.2405 56.9823 71.1489 56.9408 71.0539 56.8955C71.2185 57.207 71.3325 57.4993 71.3966 57.7164L71.1003 57.7095C71.0227 57.4469 70.8698 57.0706 70.6414 56.6872C70.2278 56.4677 69.785 56.2041 69.4124 55.958C69.0228 55.7005 68.6939 55.4517 68.5658 55.2907C68.5334 55.2499 68.508 55.2078 68.5036 55.1695C68.499 55.1295 68.5174 55.0844 68.5937 55.0593C68.6631 55.0364 68.7515 55.0404 68.8281 55.0507ZM70.4299 56.3632C70.152 56.204 69.8747 56.0338 69.6288 55.8713C69.2384 55.6133 68.9429 55.3852 68.8383 55.2537C68.8222 55.2334 68.8129 55.2182 68.808 55.2073C68.8096 55.2075 68.8114 55.2078 68.8133 55.208C68.8555 55.2137 68.92 55.2273 69.0122 55.2533C69.2866 55.3307 69.545 55.4735 69.7838 55.6654C70.0215 55.8564 70.2309 56.0891 70.4102 56.3358C70.4168 56.3449 70.4234 56.354 70.4299 56.3632ZM74.0808 57.5086C74.1609 57.6165 74.2366 57.713 74.3075 57.7987C74.4664 57.9908 74.5997 58.1267 74.7032 58.2153C74.6795 58.1692 74.6445 58.1132 74.5965 58.0482C74.4884 57.9022 74.3192 57.7171 74.0808 57.5086ZM71.9642 56.6439C71.96 56.6376 71.9557 56.6312 71.9513 56.6247C71.7255 56.294 71.2586 55.8657 70.7524 55.5708C70.6249 55.4964 70.5117 55.4371 70.4162 55.3929C70.3512 55.3628 70.2979 55.3413 70.2563 55.3269C70.3063 55.4087 70.4528 55.5578 70.7398 55.7846C71.017 56.0036 71.4167 56.2884 71.9642 56.6439ZM70.2382 55.2819C70.2382 55.2819 70.2382 55.282 70.2381 55.2821C70.2381 55.282 70.2382 55.2819 70.2382 55.2819ZM70.1796 55.3053C70.1771 55.3051 70.1757 55.3049 70.1755 55.3048C70.1754 55.3047 70.1767 55.3048 70.1796 55.3053Z" fill="#FCFCFC"/>
<path d="M59.8729 56.2558C64.0146 54.7619 71.5007 52.874 74.0252 52.2329" stroke="#FDFBFF" stroke-width="0.28" stroke-linecap="round"/>
<path d="M24.9099 54.4058C29.2647 53.148 38.6055 50.472 41.13 49.8309" stroke="#A5ABC1" stroke-width="0.28" stroke-linecap="round"/>
<path d="M31.8492 60.1191C36.0247 58.7728 49.6331 54.8746 53.4401 54.0015" stroke="#A5ABC1" stroke-width="0.28" stroke-linecap="round"/>
<path d="M26.925 56.1199C31.2798 54.8621 36.4112 53.3847 38.9357 52.7435" stroke="#A5ABC1" stroke-width="0.28" stroke-linecap="round"/>
<path d="M27.8361 56.7644C32.191 55.5066 37.3224 54.0292 39.8468 53.3881" stroke="#A5ABC1" stroke-width="0.28" stroke-linecap="round"/>
<path d="M28.7985 57.6335C33.1534 56.3757 38.2848 54.8984 40.8092 54.2572" stroke="#A5ABC1" stroke-width="0.28" stroke-linecap="round"/>
<path d="M38.0126 65.7753C42.3674 64.5175 51.6345 61.9362 54.159 61.295" stroke="#FDFBFF" stroke-width="0.28" stroke-linecap="round"/>
<path d="M37.0844 65.0566C41.4392 63.7988 50.7063 61.2174 53.2307 60.5763" stroke="#FDFBFF" stroke-width="0.28" stroke-linecap="round"/>
<path d="M35.0126 63.5117C39.3674 62.2538 48.6345 59.6725 51.159 59.0314" stroke="#FDFBFF" stroke-width="0.28" stroke-linecap="round"/>
<path d="M43.097 44.6281C43.3664 41.2423 58.1206 52.966 61.175 48.367C65.6504 41.6285 17.9826 12.3189 11.2489 10.5248C2.91563 8.30451 -29.1872 18.0274 -13.026 34.2948C-9.10358 36.4861 -1.81781 13.9878 20.6146 40.6073C20.6049 40.6876 20.703 40.8087 20.9241 40.9765C20.8206 40.8524 20.7174 40.7293 20.6146 40.6073C20.7553 39.4449 43.495 46.8273 43.097 44.6281Z" fill="#D4A181"/>
<path d="M39.5203 16.6933L-54.7358 -86.5034L-81.76 -256.83C-81.76 -256.83 -135.073 -187.798 -131.924 -78.409C-131.421 -60.9412 -92.1461 -19.0658 -72.2765 -5.20888C-51.4741 9.29858 7.75832 48.1871 7.75832 48.1871C17.0009 49.3598 43.4612 26.3005 39.5203 16.6933Z" fill="#F6EFED"/>
</g>
</g>
</g>
<defs>
<linearGradient id="paint0_linear_3044_40869" x1="108.041" y1="54.568" x2="10.7141" y2="84.9341" gradientUnits="userSpaceOnUse">
<stop stop-color="#E8E1DE"/>
<stop offset="1" stop-color="#C9BFBB"/>
</linearGradient>
<clipPath id="clip0_3044_40869">
<rect width="100" height="100" fill="white"/>
</clipPath>
<clipPath id="clip1_3044_40869">
<rect width="123" height="106.6" fill="white" transform="matrix(-1 0 0 1 108 -3)"/>
</clipPath>
</defs>
</svg>
