<svg width="14" height="14" viewBox="0 0 14 14" fill="none" xmlns="http://www.w3.org/2000/svg">
<path d="M0.117188 6.85938C0.117188 7.24219 0.4375 7.55469 0.8125 7.55469H5.86719V12.6094C5.86719 12.9844 6.17969 13.3047 6.5625 13.3047C6.94531 13.3047 7.26562 12.9844 7.26562 12.6094V7.55469H12.3125C12.6875 7.55469 13.0078 7.24219 13.0078 6.85938C13.0078 6.47656 12.6875 6.15625 12.3125 6.15625H7.26562V1.10938C7.26562 0.734375 6.94531 0.414062 6.5625 0.414062C6.17969 0.414062 5.86719 0.734375 5.86719 1.10938V6.15625H0.8125C0.4375 6.15625 0.117188 6.47656 0.117188 6.85938Z" fill="#F6EFED"/>
</svg>
