<svg width="130" height="25" viewBox="0 0 130 25" fill="none" xmlns="http://www.w3.org/2000/svg">
<g clip-path="url(#clip0_2260_72302)">
<path d="M11.2624 4.57382L15.3895 6.93866C18.1266 8.50702 19.0644 11.9806 17.4841 14.697C17.084 15.3848 16.5609 15.9581 15.9582 16.4053V17.7296C15.9582 20.2009 17.9768 22.2042 20.4668 22.2042C22.9568 22.2042 24.9754 20.2009 24.9754 17.7296V4.47459C24.9754 2.00334 22.9568 0 20.4668 0C19.7555 0 19.0828 0.163458 18.4845 0.454589C18.3677 0.508882 18.2523 0.568569 18.1386 0.633731L11.2624 4.57382Z" fill="#F6F0ED"/>
<path fill-rule="evenodd" clip-rule="evenodd" d="M6.48024 3.24533C5.88464 2.95743 5.21561 2.7959 4.50856 2.7959C2.01855 2.7959 0 4.79924 0 7.27049V20.5255C0 22.9968 2.01855 25.0001 4.50856 25.0001C6.99857 25.0001 9.01712 22.9968 9.01712 20.5255V15.0123L10.2739 15.7325C12.4304 16.9681 15.1878 16.2348 16.4328 14.0947C17.6778 11.9545 16.9389 9.2179 14.7825 7.98227L6.83725 3.42963C6.71991 3.3624 6.6008 3.301 6.48024 3.24533Z" fill="#F6F0ED"/>
<path d="M42.9849 17.3517L45.409 13.9009C46.2401 12.7198 47.0712 11.4923 47.8562 10.3112L47.9023 10.3343C47.8793 11.5386 47.8562 13.1135 47.8562 14.5031V21.2194H51.527V4.45178H48.0409L43.0772 11.5386L38.1136 4.45178H34.5813V21.2194H38.1136V14.5031C38.1136 13.1135 38.0905 11.5386 38.0674 10.3343L38.1136 10.3112C38.8985 11.4923 39.7296 12.7198 40.5608 13.9009L42.9849 17.3517Z" fill="#F6F0ED"/>
<path d="M54.5793 6.21191C54.5793 7.32357 55.5027 8.2268 56.6109 8.2268C57.7191 8.2268 58.6425 7.32357 58.6425 6.21191C58.6425 5.10025 57.7191 4.19702 56.6109 4.19702C55.5027 4.19702 54.5793 5.10025 54.5793 6.21191ZM54.8563 21.2194H58.3655V9.82481H54.8563V21.2194Z" fill="#F6F0ED"/>
<path d="M61.6281 21.2194H65.1373V13.5535C65.7607 13.0672 66.6149 12.604 67.5152 12.604C68.0001 12.604 68.4156 12.7429 68.7158 13.0903C68.9928 13.4146 69.1082 13.8314 69.1082 14.6883V21.2194H72.6174V14.1093C72.6174 12.465 72.3173 11.4691 71.6247 10.728C70.909 9.98693 69.847 9.57006 68.6465 9.57006C67.2151 9.57006 66.0146 10.1722 65.1373 10.8902L65.0911 10.867V9.82481H61.6281V21.2194Z" fill="#F6F0ED"/>
<path d="M82.9974 20.6172V21.2194H86.4374V3.52539H82.9282V9.96377L82.882 9.98693C82.2817 9.73217 81.5891 9.57006 80.7349 9.57006C77.3412 9.57006 74.7324 12.1639 74.7324 15.7537C74.7324 19.2508 77.2027 21.4741 80.0654 21.4741C81.1736 21.4741 82.1894 21.1267 82.9513 20.594L82.9974 20.6172ZM82.9282 18.0233C82.4203 18.3476 81.7277 18.6023 80.9658 18.6023C79.2343 18.6023 78.2646 17.2822 78.2646 15.5916C78.2646 13.8777 79.2574 12.4882 81.1043 12.4882C81.7969 12.4882 82.4203 12.6734 82.9282 12.9282V18.0233Z" fill="#F6F0ED"/>
<path d="M93.0966 18.0002V7.67096H94.0893C95.9594 7.67096 97.5523 7.85624 98.7298 8.68999C99.9765 9.57006 100.669 11.0523 100.669 12.8124C100.669 14.4799 100.046 15.8232 99.053 16.6801C98.0141 17.5833 96.4904 18.0002 94.1124 18.0002H93.0966ZM89.4258 21.2194H93.9508C97.46 21.2194 99.861 20.5477 101.569 19.1581C103.347 17.6991 104.34 15.4526 104.34 12.8124C104.34 9.94061 103.186 7.57833 101.131 6.14243C99.3993 4.93813 97.0906 4.45178 94.1124 4.45178H89.4258V21.2194Z" fill="#F6F0ED"/>
<path d="M109.307 15.5221C109.307 13.9009 110.531 12.604 112.124 12.604C113.717 12.604 114.94 13.9009 114.94 15.5221C114.94 17.1433 113.717 18.4402 112.124 18.4402C110.531 18.4402 109.307 17.1433 109.307 15.5221ZM105.798 15.5221C105.798 18.8802 108.499 21.4741 112.124 21.4741C115.748 21.4741 118.45 18.8802 118.45 15.5221C118.45 12.1639 115.748 9.57006 112.124 9.57006C108.499 9.57006 105.798 12.1639 105.798 15.5221Z" fill="#F6F0ED"/>
<path d="M130 17.3517C129.053 18.0696 127.784 18.4865 126.676 18.4865C124.782 18.4865 123.466 17.2591 123.466 15.5221C123.466 13.8083 124.759 12.5345 126.629 12.5345C127.714 12.5345 128.823 12.9514 129.838 13.5998V10.3343C128.915 9.87113 127.738 9.57006 126.468 9.57006C122.912 9.57006 119.957 11.9555 119.957 15.5452C119.957 18.9729 122.635 21.4741 126.283 21.4741C127.576 21.4741 128.915 21.1962 130 20.594V17.3517Z" fill="#F6F0ED"/>
</g>
<defs>
<clipPath id="clip0_2260_72302">
<rect width="130" height="25" fill="white"/>
</clipPath>
</defs>
</svg>
