<svg width="1440" height="241" viewBox="0 0 1440 241" fill="none" xmlns="http://www.w3.org/2000/svg">
<g clip-path="url(#clip0_2281_100639)">
<path d="M-12.9221 212.438C-59.2751 906.619 1404.45 1066.27 1464 243.375C1367.99 120.287 800.684 101.654 411.259 131.432C134.982 152.558 -12.9221 212.438 -12.9221 212.438Z" fill="#4C7F7F"/>
<path d="M-12.9221 212.438C-59.2751 906.619 1404.45 1066.27 1464 243.375C1367.99 120.287 800.684 101.654 411.259 131.432C134.982 152.558 -12.9221 212.438 -12.9221 212.438Z" fill="#4C7F7F"/>
<path d="M595.647 124.632C595.224 123.315 596.042 120.831 596.506 120.295C602.351 119.33 602.354 125.268 601.811 128.131C601.811 128.131 597.058 129.027 595.647 124.632Z" fill="#548686"/>
<path d="M590.594 130.056C587.596 124.991 587.145 120.943 588.983 118.973C590.968 116.845 593.625 118.839 596.413 121.207L597.273 120.599C595.17 117.969 591.18 114.758 588.159 116.186C579.13 120.455 593.626 137.306 592.471 143.015C592.637 144.765 598.438 143.655 597.742 142.409C596.353 139.918 592.991 134.109 590.594 130.056Z" fill="#548686"/>
<path d="M642.059 138.846C640.718 135.223 640.511 128.333 639.092 121.066C636.976 110.238 637.964 106.714 645.83 101.104C640.771 103.374 638.767 104.969 636.181 108.481C630.58 116.083 641.426 131.583 631.107 138.333C630.918 141.489 641.868 142.019 642.059 138.846Z" fill="#588B8B"/>
<path d="M636.06 115.967L635.317 121.916C634.879 116.23 632.682 110.927 624.061 105.22C631.789 108.717 634.868 113.109 636.06 115.967Z" fill="#4F7E7E"/>
<path d="M631.114 138.171C631.029 139.586 633.181 140.473 635.599 140.735C641.41 124.296 627.947 108.971 645.838 100.942C640.892 103.162 635.46 106.552 634.625 112.395C633.459 120.549 639.822 132.475 631.114 138.171Z" fill="#4F7E7E"/>
<path d="M646 105.791C644.175 106.213 640.915 104.827 640.245 104.14C639.605 96.1417 647.62 96.8101 651.423 97.8672C651.423 97.8672 652.093 104.385 646 105.791Z" fill="#588B8B"/>
<path d="M609.536 100.304C609.536 100.304 618.979 92.3716 628.568 98.8928C636.923 104.575 629.231 116.48 621.863 111.091C619.022 109.014 616.705 101.31 609.536 100.304Z" fill="#588B8B"/>
<path d="M699.561 112.757L697.94 119.829C695.932 111.439 691.388 104.04 677.151 97.5674C689.157 100.041 696.674 105.238 699.561 112.757Z" fill="#588B8B"/>
<path d="M697.65 118.732L697.087 112.257C695.208 108.164 691.381 105.235 687.944 103.219L687.545 104.185C691.32 105.589 696.209 112.966 697.65 118.732Z" fill="#4F7E7E"/>
<path d="M697.821 107.497C698.812 109.021 700.857 111.69 701.103 110.182C701.494 107.793 705.55 105.532 704.81 103.921C704.534 103.318 702.447 105.13 700.775 105.986L697.821 107.497Z" fill="#588B8B"/>
<path d="M658.577 89.7912C658.577 89.7912 670.254 78.7435 684.426 87.4732C697.307 95.4082 687.173 111.987 676.857 105.308C673.172 102.922 670.393 91.5657 658.577 89.7912Z" fill="#588B8B"/>
<path d="M675.99 60.0893C675.99 60.0893 689.425 57.8253 694.904 69.4052C699.677 79.495 686.144 85.1627 681.687 77.2659C680.095 74.445 682.254 65.0635 675.99 60.0893Z" fill="#588B8B"/>
<path d="M699.457 92.8522L695.693 98.9002C695.337 89.4228 695.222 77.5664 685.007 70.0107C692.752 75.7392 696.432 82.8388 699.457 92.8522Z" fill="#588B8B"/>
<path d="M706.285 134.596C704.256 129.116 703.943 118.695 701.796 107.701C698.596 91.3231 700.965 86.0449 712.863 77.5586C705.21 80.9927 702.181 83.4054 698.268 88.7171C689.796 100.217 706.203 123.663 690.594 133.873C690.307 138.647 705.996 139.397 706.285 134.596Z" fill="#588B8B"/>
<path d="M696.129 127.849C694.744 130.843 691.808 133.058 690.514 133.791C688.645 135.489 694.914 137.966 696.807 137.707C697.655 135.351 699.377 129.456 699.475 124.72C699.573 119.983 698.081 113.918 696.872 111.696C696.872 111.696 696.573 113.874 697.207 117.355C697.841 120.836 697.515 124.856 696.129 127.849Z" fill="#4F7E7E"/>
<path d="M718.061 109.839C713.327 110.931 704.872 107.338 703.133 105.556C701.473 84.8096 721.517 92.8969 732.126 89.2856C732.126 89.2856 733.865 106.19 718.061 109.839Z" fill="#588B8B"/>
<path d="M764.068 102.45L769.15 107.803C767.604 99.7418 767.379 91.3913 777.726 79.6182C767.431 86.9797 762.903 94.7263 764.068 102.45Z" fill="#588B8B"/>
<path d="M765.037 130.607L765.296 126.305C772.404 125.729 773.49 119.67 781.627 105.907C777.247 121.63 771.629 128.631 765.037 130.607Z" fill="#588B8B"/>
<path d="M766.421 111.486L766.773 105.643C759.335 104.194 758.937 98.046 752.043 83.3799C754.104 100.489 759.703 108.71 766.421 111.486Z" fill="#588B8B"/>
<path d="M773.199 141.724C771.146 133.219 771.102 116.946 769.076 99.8301C766.058 74.331 768.789 66.0164 781.995 52.4171C773.559 58.0013 770.189 61.8575 765.775 70.2686C756.217 88.479 773.339 123.103 756.042 139.502C761.119 144.808 769.299 146.835 773.199 141.724Z" fill="#588B8B"/>
<path d="M764.076 144.287C764.076 130.903 767.49 123.036 763.815 110.015C763.815 110.015 765.202 119.491 762.841 127.122C760.832 133.612 754.912 138.318 755.946 139.518C757.801 142.521 764.076 144.287 764.076 144.287Z" fill="#4F7E7E"/>
<path d="M766.857 68.4216C764.299 74.2292 764.204 73.9509 762.606 80.6208C765.06 65.6153 761.603 47.9782 759.295 42.0955C758.18 39.255 758.273 37.636 757.156 34.8223C763.781 42.3016 766.128 63.5559 766.857 68.4216Z" fill="#4F7E7E"/>
<path d="M783.632 87.1258C780.42 89.1945 773.207 88.7867 771.446 87.9312C764.694 73.0218 780.538 68.7701 788.567 68.1731C788.567 68.1731 794.355 80.2186 783.632 87.1258Z" fill="#588B8B"/>
<path d="M734.376 75.4759C734.191 70.1948 739.544 55.5492 741.807 54.062C739.643 69.7316 767.056 80.1243 756.98 98.149C756.98 98.149 734.992 93.1085 734.376 75.4759Z" fill="#588B8B"/>
<path d="M797.314 102.923C797.771 95.3204 791.826 88.5197 790.02 87.0506C786.57 102.277 771.81 111.096 775.022 119.986C775.022 119.986 796.135 122.535 797.314 102.923Z" fill="#588B8B"/>
<path d="M738.6 44.9231C738.6 44.9231 750.922 40.4446 758.121 50.4519C764.393 59.1714 752.57 66.8885 746.978 60.1894C743.985 56.6035 745.393 48.5419 738.6 44.9231Z" fill="#588B8B"/>
<path d="M749.701 51.7549C758.498 57.8335 764.265 68.1123 765.201 75.734C765.716 79.9294 762.631 85.6976 762.631 85.6976C760.766 72.8255 759.733 62.327 749.701 51.7549Z" fill="#588B8B"/>
<path d="M762.997 26.4366C765.925 35.9303 763.924 41.1993 760.593 45.0979C756.335 43.54 749.902 38.4541 747.917 29.274C745.932 20.0938 747.917 13.1043 750.814 12.2106C753.712 11.3168 760.068 16.9428 762.997 26.4366Z" fill="#FF6940"/>
<path d="M754.358 33.4164C752.54 29.4474 747.332 13.2916 750.471 12.3235C752.194 11.7919 754.206 12.2166 758.109 16.8211C763.407 23.0729 765.503 34.1723 764.009 37.9182C762.77 41.0249 759.203 41.8781 757.357 39.0894C756.245 37.4094 755.228 35.3181 754.358 33.4164Z" fill="#FF8362"/>
<path d="M762.092 44.8319C764.836 43.9859 765.576 39.0916 765.244 37.0491C764.004 37.9083 762.654 39.3147 762.111 41.2922L762.111 41.2922C761.559 39.5033 760.865 37.2533 759.787 36.1639C759.313 38.0561 758.873 39.6406 759.118 41.8251C757.645 39.9328 753.501 39.742 752.099 39.7593C752.809 43.1738 757.967 45.214 759.433 45.2814C760.802 45.3444 761.126 44.8825 761.126 44.8825C761.126 44.8825 761.635 44.973 762.092 44.8319Z" fill="#588B8B"/>
<path d="M802.759 46.1191C799.375 50.86 794.7 56.4321 789.624 57.7401C777.932 60.753 771.581 48.1702 781.031 41.0097C784.863 38.1064 790.817 39.2691 794.652 38.1776C796.892 37.5404 799.281 37.1751 801.417 36.9682C804.624 36.6576 806.643 39.9057 804.995 42.6741C804.325 43.7995 803.571 44.9811 802.759 46.1191Z" fill="#EE562D"/>
<path d="M794.447 35.3015C794.335 41.149 794.302 47.2762 791.683 51.2989C785.069 61.4553 769.878 54.7375 773.629 43.4363C775.15 38.8542 778.421 35.854 780.969 32.7688C783.145 30.1342 786.337 28.2336 788.631 27.1035C790.308 26.2769 792.286 26.8205 793.061 28.5227C793.798 30.1428 794.502 32.4525 794.447 35.3015Z" fill="#EE562D"/>
<path d="M787.411 34.5443C790.747 39.3435 792.562 43.4779 791.594 48.1618C789.148 59.9876 773.176 58.9756 772.655 47.0725C772.435 42.0559 774.212 35.8325 776.749 30.1193C778.521 26.1272 784.201 27.6687 785.884 31.6993C786.311 32.7209 786.815 33.6866 787.411 34.5443Z" fill="#FF8362"/>
<path d="M800.365 52.1227C795.586 55.3623 790.628 58.8224 785.911 59.0977C774.004 59.7926 770.879 44.2972 782.101 40.7517C786.651 39.3142 789.657 37.486 796.422 40.3156C797.769 40.8791 799.216 41.3269 800.645 41.6824C804.355 42.6049 806.238 47.2607 803.358 49.7749C802.365 50.6421 801.345 51.4578 800.365 52.1227Z" fill="#FF8362"/>
<path d="M773.289 40.545C773.289 40.545 771.923 45.9653 773.145 50.0144C778.12 42.0687 777.896 39.5737 787.743 34.9677C787.115 34.1124 786.823 33.5928 786.823 33.5928C775.65 34.175 773.289 40.545 773.289 40.545Z" fill="#FF6940"/>
<path d="M802.492 42.4995C802.492 42.4995 799.852 41.0936 797.492 40.4995C797.767 44.7517 796.167 49.9652 787.08 55.9321C787.824 56.6888 789.705 57.9375 789.705 57.9375C798.449 53.5173 802.492 42.4995 802.492 42.4995Z" fill="#FF6940"/>
<path d="M800.687 41.9422C798.591 47.666 795.418 53.9337 791.395 56.9347C786.262 60.764 779.883 59.4382 776.291 56.0272C768.085 48.2352 776.088 36.6204 785.674 34.3573C786.707 34.1134 787.715 33.8179 788.692 33.4832C794.358 31.5433 802.745 36.3184 800.687 41.9422Z" fill="#FF8362"/>
<path d="M799.992 37.0005C799.992 37.0005 795.988 41.5969 791.412 45.4624C785.545 50.4194 784.995 48.8354 775.908 54.8025C776.658 57.868 782.61 59.1881 782.61 59.1881C791.354 54.7676 799.992 37.0005 799.992 37.0005Z" fill="#FF6940"/>
<g opacity="0.5">
<path d="M411.409 131.449C135.171 152.604 -3 209.824 -12.7119 212.567C-22.4238 215.309 114 222.434 158 212.567C202 202.7 358.846 222.099 466.915 189.099C607.021 146.316 692.618 174.305 775.083 175.371C825.79 176.026 826.365 112.844 891.317 140.775C980.415 179.09 1087.11 269.714 1197.27 189.099C1276.06 131.449 1371.22 237.387 1464 243.546C1368 120.289 800.779 101.63 411.409 131.449Z" fill="#40B881"/>
<path d="M411.409 131.449C135.171 152.604 -3 209.824 -12.7119 212.567C-22.4238 215.309 114 222.434 158 212.567C202 202.7 358.846 222.099 466.915 189.099C607.021 146.316 692.618 174.305 775.083 175.371C825.79 176.026 826.365 112.844 891.317 140.775C980.415 179.09 1087.11 269.714 1197.27 189.099C1276.06 131.449 1371.22 237.387 1464 243.546C1368 120.289 800.779 101.63 411.409 131.449Z" fill="url(#paint0_linear_2281_100639)"/>
</g>
</g>
<defs>
<linearGradient id="paint0_linear_2281_100639" x1="919.356" y1="-712.898" x2="818.323" y2="1097.49" gradientUnits="userSpaceOnUse">
<stop stop-color="#2F5655"/>
<stop offset="1" stop-color="#487474"/>
<stop offset="1" stop-color="#295B5B"/>
</linearGradient>
<clipPath id="clip0_2281_100639">
<rect width="1440" height="241" fill="white"/>
</clipPath>
</defs>
</svg>
