<svg width="24" height="24" viewBox="0 0 24 24" fill="none" xmlns="http://www.w3.org/2000/svg">
<path d="M12.0009 2C9.28508 2 8.94424 2.01188 7.87756 2.06042C6.81297 2.10917 6.08629 2.27771 5.45045 2.52501C4.79274 2.78043 4.23482 3.1221 3.67898 3.67814C3.12272 4.23398 2.78105 4.79191 2.5248 5.44941C2.27688 6.08546 2.10813 6.81234 2.06021 7.87652C2.0125 8.9432 2 9.28425 2 12.0001C2 14.716 2.01208 15.0558 2.06042 16.1224C2.10938 17.187 2.27792 17.9137 2.52501 18.5496C2.78063 19.2073 3.1223 19.7652 3.67835 20.321C4.23398 20.8773 4.79191 21.2198 5.4492 21.4752C6.08546 21.7225 6.81234 21.891 7.87673 21.9398C8.94341 21.9883 9.28404 22.0002 11.9997 22.0002C14.7158 22.0002 15.0556 21.9883 16.1222 21.9398C17.1868 21.891 17.9143 21.7225 18.5506 21.4752C19.2081 21.2198 19.7652 20.8773 20.3208 20.321C20.8771 19.7652 21.2188 19.2073 21.475 18.5498C21.7208 17.9137 21.8896 17.1868 21.9396 16.1227C21.9875 15.056 22 14.716 22 12.0001C22 9.28425 21.9875 8.94341 21.9396 7.87673C21.8896 6.81214 21.7208 6.08546 21.475 5.44962C21.2188 4.7919 20.8771 4.23398 20.3208 3.67814C19.7646 3.12189 19.2083 2.78022 18.55 2.52501C17.9125 2.27771 17.1854 2.10917 16.1208 2.06042C15.0541 2.01188 14.7145 2 11.9978 2H12.0009ZM11.1038 3.8021C11.3701 3.80169 11.6672 3.8021 12.0009 3.8021C14.671 3.8021 14.9874 3.81169 16.0418 3.8596C17.0168 3.90419 17.546 4.06711 17.8985 4.20398C18.3652 4.38523 18.6979 4.6019 19.0477 4.95191C19.3977 5.30191 19.6144 5.63525 19.796 6.10192C19.9329 6.45401 20.096 6.98318 20.1404 7.95819C20.1883 9.01237 20.1987 9.32904 20.1987 11.9978C20.1987 14.6666 20.1883 14.9833 20.1404 16.0374C20.0958 17.0125 19.9329 17.5416 19.796 17.8937C19.6148 18.3604 19.3977 18.6927 19.0477 19.0425C18.6977 19.3925 18.3654 19.6091 17.8985 19.7904C17.5464 19.9279 17.0168 20.0904 16.0418 20.135C14.9876 20.1829 14.671 20.1933 12.0009 20.1933C9.3307 20.1933 9.01424 20.1829 7.96007 20.135C6.98505 20.09 6.45588 19.9271 6.10317 19.7902C5.6365 19.6089 5.30316 19.3923 4.95316 19.0423C4.60315 18.6923 4.38648 18.3598 4.20482 17.8929C4.06794 17.5408 3.90481 17.0116 3.86044 16.0366C3.81252 14.9824 3.80294 14.6658 3.80294 11.9953C3.80294 9.32487 3.81252 9.00987 3.86044 7.95569C3.90502 6.98068 4.06794 6.45151 4.20482 6.099C4.38607 5.63233 4.60315 5.29899 4.95316 4.94899C5.30316 4.59899 5.6365 4.38232 6.10317 4.20065C6.45567 4.06315 6.98505 3.90065 7.96007 3.85585C8.88258 3.81419 9.24008 3.80169 11.1038 3.7996V3.8021ZM17.3389 5.46254C16.6764 5.46254 16.1389 5.99942 16.1389 6.66213C16.1389 7.32464 16.6764 7.86215 17.3389 7.86215C18.0014 7.86215 18.5389 7.32464 18.5389 6.66213C18.5389 5.99963 18.0014 5.46212 17.3389 5.46212V5.46254ZM12.0009 6.86464C9.16487 6.86464 6.86547 9.16404 6.86547 12.0001C6.86547 14.8362 9.16487 17.1345 12.0009 17.1345C14.837 17.1345 17.1356 14.8362 17.1356 12.0001C17.1356 9.16404 14.8368 6.86464 12.0007 6.86464H12.0009ZM12.0009 8.66674C13.8418 8.66674 15.3343 10.159 15.3343 12.0001C15.3343 13.841 13.8418 15.3335 12.0009 15.3335C10.1599 15.3335 8.66757 13.841 8.66757 12.0001C8.66757 10.159 10.1599 8.66674 12.0009 8.66674Z" fill="#F6EFED"/>
</svg>
