<svg width="100" height="100" viewBox="0 0 100 100" fill="none" xmlns="http://www.w3.org/2000/svg">
<g clip-path="url(#clip0_3044_160241)">
<mask id="mask0_3044_160241" style="mask-type:alpha" maskUnits="userSpaceOnUse" x="2" y="11" width="93" height="80">
<path fill-rule="evenodd" clip-rule="evenodd" d="M39.9995 12.5948C70.965 7.19029 95.6932 16.8479 94.13 52.7409C93.4976 67.2602 89.8334 76.1702 78.2073 84.6869C66.5769 93.2068 47.6827 91.2107 33.9895 86.8529C12.5671 80.0354 -6.14131 52.1904 6.071 29.6868C10.8904 20.8062 21.9252 15.7494 39.9995 12.5948Z" fill="#C4C4C4"/>
</mask>
<g mask="url(#mask0_3044_160241)">
<path fill-rule="evenodd" clip-rule="evenodd" d="M23.4744 93.7975C25.1714 102 44.9429 88.1695 51.1466 93.7975C57.1954 99.285 64.5536 104.559 72.7083 104.111C88.7386 103.229 113.887 74.4086 116.156 57.6608C120.383 26.4473 88.2506 -1.39563 48.3552 1.23142C29.4094 2.47897 -21.8907 18.7137 -13.587 45.5013C-8.52602 61.8279 19.6937 75.5234 23.4744 93.7975Z" fill="#FF9B81"/>
<path opacity="0.65" d="M29.2493 -11.9447L90.2002 51.5109L81.3248 69.5619H31.5733L-3.80853 69.4181V73.8397H2.52397L0.965696 87.6L-18.1783 69.5619C-23.8352 56.1658 -21.012 24.7128 -3.03747 8.44622C14.937 -7.8204 19.5291 -12.5826 29.2493 -11.9447Z" fill="#FFCDC0"/>
<path d="M52.0169 105.191C40.8085 102.191 -14.1376 108.419 6.3016 73.0801C18.9801 77.389 54.6025 81.9885 61.2986 94.4483C64.4164 100.25 60.1022 107.354 52.0169 105.191Z" fill="#051421"/>
<rect x="0.855469" y="74.6816" width="98.3438" height="9.36233" fill="#4C7F7F"/>
<rect x="7.40039" y="73.4688" width="85.5292" height="2.94178" fill="#2E4C4D"/>
<path d="M-3.81592 122.209L0.869119 74.6348H8.1945L-0.424544 122.209H-3.81592Z" fill="#09375A"/>
<rect x="-5.74902" y="70.1426" width="101.565" height="4.57129" fill="#3D6666"/>
<path d="M52.7103 69.1108L36.3148 69.1108C33.164 64.5661 34.8238 59.6939 32.4812 54.6941C31.26 52.0835 30.0209 49.4171 29.677 46.5535C29.0288 41.1471 36.3641 35.8343 41.8991 40.8172C45.0801 50.3606 45.1367 61.4558 52.7103 69.1108Z" fill="#A7755A"/>
<path d="M53.2335 69.4867L62.7119 67.0997L47.422 67.0997L38.9976 69.3247L53.2335 69.4867Z" fill="#A5ABC1"/>
<path d="M39.0142 70.1568H53.0211V69.3379H39.0142V70.1568Z" fill="#585E71"/>
<path d="M46.0663 43.5521C52.1209 39.8533 47.1528 36.17 50.4056 30.1663L40.6414 30.5969L39.8125 35.3594L46.0663 43.5521Z" fill="#162C3B"/>
<path d="M35.7306 59.6675C36.0175 62.426 48.9861 59.8362 48.7182 57.1805C46.1559 50.9718 49.5237 41.1406 41.6291 37.3194C33.2904 33.9028 31.942 46.1555 32.925 50.7772C33.4763 53.3695 35.7306 59.6675 35.7306 59.6675Z" fill="#F6EFED"/>
<path d="M36.928 66.8525C37.6335 67.2241 37.6132 67.3139 38.9436 67.0445C40.4581 64.1637 46.9777 56.7254 43.9458 50.1861C43.9458 50.1861 36.8557 49.2155 37.0562 53.304C37.1687 55.5972 36.928 66.8525 36.928 66.8525Z" fill="#866041"/>
<path d="M42.9782 60.3419C44.5181 57.2242 45.5211 53.584 43.9458 50.1865C43.9458 50.1865 36.8558 49.2159 37.0563 53.3044C37.111 54.4199 37.0821 57.6562 37.0381 60.686C38.4431 61.0122 40.7696 60.8269 42.9782 60.3419Z" fill="#EBE1DD"/>
<path d="M33.5757 32.5258C35.205 32.9124 42.0043 37.0534 43.5592 38.56C41.6357 50.0302 45.3665 50.2875 43.8937 55.3855C43.0578 58.279 41.4381 60.0983 39.37 63.766C38.1119 65.9973 37.7107 70.0889 37.7107 70.0889L16.5351 66.474C20.1238 57.1185 8.43313 29.3236 33.5757 32.5258Z" fill="#F6EFED"/>
<path d="M28.3345 48.7285C28.3345 48.7285 21.7993 51.502 18.983 54.4726C16.2803 57.3234 17.2339 61.241 16.1903 64.6559C17.2184 63.2916 18.2074 62.2583 19.1345 61.4762C19.5457 61.1293 20.3566 60.8501 22.0373 59.1662C22.3591 58.8438 24.4481 59.6794 26.2803 59.9175C28.134 60.1584 29.8799 58.6659 29.0952 58.331C23.741 56.0464 27.2886 51.0781 28.3345 48.7285Z" fill="#EBE1DD"/>
<path d="M16.899 41.489C11.6658 49.2644 8.24442 56.2253 7.22557 62.3606L17.7688 63.8895C17.7688 63.8895 22.0945 56.0153 28.6776 48.0239C36.1091 39.0027 23.9189 31.059 16.899 41.489Z" fill="#BA8B72"/>
<path d="M38.2479 66.1812C28.2368 66.1812 12.8362 59.644 12.8362 59.644L7.32984 61.9008C5.77017 69.6546 7.32984 71.417 37.4418 70.3123L38.2479 66.1812Z" fill="#BA8B72"/>
<path d="M10.1107 48.2871C7.70247 51.7769 20.2326 60.2329 22.4528 57.5209C22.4528 57.5209 28.6434 48.2843 30.8129 45.4015C34.5165 40.4803 44.465 34.3091 31.6573 32.146C23.9725 28.6615 14.4967 40.1415 10.1107 48.2871Z" fill="#F6EFED"/>
<path d="M33.0118 66.0621L33.5604 70.3345C34.3468 70.3848 44.6537 71.1405 43.1712 68.6657C41.6887 66.191 41.0706 66.457 38.3876 66.0023C35.658 65.5398 33.0118 66.0621 33.0118 66.0621Z" fill="#BA8B72"/>
<path d="M30.8096 32.727C30.7821 32.9312 30.9021 33.1752 30.9834 33.3589C32.2955 36.3473 34.6013 38.4299 37.6412 39.3932C37.929 39.4828 38.4691 39.5804 38.7204 39.4041C38.8286 39.3273 38.9259 38.9065 39.477 38.0247C41.5817 34.6691 46.0548 27.2339 41.1579 25.9271C40.4676 25.7418 39.2463 26.0359 37.958 26.8299C35.1677 28.5495 31.7444 31.857 30.8096 32.727Z" fill="#BA8B72"/>
<path d="M40.1309 36.9718C40.8022 35.7323 42.3226 33.2506 42.7133 31.9036C41.6934 31.1651 36.32 26.763 35.2839 28.8092C34.4504 30.4471 37.5199 35.0014 40.1309 36.9718Z" fill="#A7755A"/>
<path d="M38.5992 33.2479C34.968 29.5044 34.0858 24.4701 36.6287 22.0035C39.1717 19.5368 44.1768 20.572 47.808 24.3155C51.4392 28.059 52.3214 33.0933 49.7784 35.56C47.2355 38.0266 42.2304 36.9915 38.5992 33.2479Z" fill="#BA8B72"/>
<path d="M48.272 32.5532C48.1463 32.9307 47.8841 34.3009 47.5578 34.5682C47.1745 34.8819 46.968 34.5276 46.5982 34.3167" stroke="#193138" stroke-width="0.6" stroke-miterlimit="10"/>
<path d="M50.5726 34.5744C55.3936 28.8087 49.4643 22.9497 44.3416 20.8067C41.1 19.455 37.3912 20.1325 34.4815 22.1483C30.0694 25.2049 27.9279 31.1421 24.3899 32.5529C24.8941 32.4538 27.0166 32.8547 28.5743 34.5744C29.8679 36.0026 30.2927 38.7531 33.457 39.1119C37.8208 39.6069 35.4532 31.1399 36.8104 28.4111C40.2585 31.2373 45.0228 31.3032 49.2029 29.5549C49.2029 29.5549 49.6754 32.1759 50.5726 34.5744Z" fill="#162C3B"/>
<path d="M81.2823 70.1538L90.1001 51.4437L62.7274 51.4297L52.98 70.1538H81.2823Z" fill="#A5ABC1"/>
<path opacity="0.5" d="M89.2383 53.2318L90.0994 51.4453H62.7848L55.6094 65.0937L89.2383 53.2318Z" fill="#C0C6DC"/>
<path d="M51.7437 70.1616H52.9966L62.8128 51.4199L62.1588 50.2148L51.7437 70.1616Z" fill="#585E71"/>
<path d="M90.1009 51.4453L88.7606 50.2191L62.1586 50.2191L62.7907 51.4453L90.1009 51.4453Z" fill="#C0C6DC"/>
<ellipse cx="72.5469" cy="61.4875" rx="1.52301" ry="1.34494" fill="#71778B"/>
</g>
</g>
<defs>
<clipPath id="clip0_3044_160241">
<rect width="100" height="100" fill="white"/>
</clipPath>
</defs>
</svg>
