<svg width="24" height="24" viewBox="0 0 24 24" fill="none" xmlns="http://www.w3.org/2000/svg">
<path d="M21.9982 22H17.8573V15.5037C17.8573 13.9546 17.8296 11.9604 15.7036 11.9604C13.5468 11.9604 13.2168 13.6482 13.2168 15.3909V21.9995H9.07593V8.64054H13.0512V10.4662H13.1069C13.9163 9.07981 15.4268 8.24871 17.0291 8.30832C21.2261 8.30832 22 11.0737 22 14.6715L21.9982 22ZM4.40356 6.81442C3.08528 6.81442 2 5.72787 2 4.40727C2 3.08668 3.08478 2 4.40306 2C5.72122 2 6.80587 3.08643 6.80612 4.40677C6.80612 5.72712 5.7216 6.81429 4.40356 6.81442ZM6.47399 22H2.32876V8.64054H6.47399V22Z" fill="#F6EFED"/>
</svg>
