<svg width="155" height="30" viewBox="0 0 155 30" fill="none" xmlns="http://www.w3.org/2000/svg">
<g clip-path="url(#clip0_2260_25573)">
<path d="M13.2641 5.53539L18.2207 8.39741C21.5079 10.2955 22.6342 14.4993 20.7364 17.7868C20.2558 18.6192 19.6276 19.313 18.9038 19.8543V21.457C18.9038 24.4478 21.328 26.8723 24.3185 26.8723C27.3089 26.8723 29.7332 24.4478 29.7332 21.457V5.41531C29.7332 2.42452 27.3089 0 24.3185 0C23.4643 0 22.6563 0.197823 21.9378 0.550159C21.7975 0.615867 21.659 0.688101 21.5224 0.766963L13.2641 5.53539Z" fill="#4C7F7F"/>
<path d="M7.94953 4.14977C5.35971 2.65438 2.04812 3.54181 0.552893 6.13191C-0.942337 8.72201 -0.0550025 12.034 2.53481 13.5294L12.0769 19.0391C14.6668 20.5345 17.9783 19.6471 19.4736 17.057C20.9688 14.4669 20.0815 11.1549 17.4917 9.65953L7.94953 4.14977Z" fill="#4C7F7F"/>
<path d="M10.5676 8.79811C10.5676 5.80732 8.14333 3.38281 5.15287 3.38281C2.16241 3.38281 -0.261841 5.80733 -0.261841 8.79812V24.579C-0.261841 27.5698 2.16241 29.9943 5.15287 29.9943C8.14333 29.9943 10.5676 27.5698 10.5676 24.579V8.79811Z" fill="#4C7F7F"/>
</g>
<path d="M51.0745 20.7246L53.9449 16.6514C54.929 15.2572 55.9132 13.8083 56.8426 12.4141L56.8973 12.4414C56.87 13.863 56.8426 15.7219 56.8426 17.3622V25.29H61.1893V5.49779H57.0613L51.1838 13.863L45.3063 5.49779H41.1237V25.29H45.3063V17.3622C45.3063 15.7219 45.279 13.863 45.2516 12.4414L45.3063 12.4141C46.2358 13.8083 47.2199 15.2572 48.2041 16.6514L51.0745 20.7246Z" fill="#404659"/>
<path d="M64.8035 7.57542C64.8035 8.88761 65.897 9.95376 67.2092 9.95376C68.5214 9.95376 69.6149 8.88761 69.6149 7.57542C69.6149 6.26323 68.5214 5.19708 67.2092 5.19708C65.897 5.19708 64.8035 6.26323 64.8035 7.57542ZM65.1316 25.29H69.2868V11.84H65.1316V25.29Z" fill="#404659"/>
<path d="M73.1502 25.29H77.3054V16.2413C78.0435 15.6672 79.055 15.1205 80.1212 15.1205C80.6952 15.1205 81.1873 15.2845 81.5427 15.6946C81.8707 16.0773 82.0074 16.5694 82.0074 17.5809V25.29H86.1627V16.8974C86.1627 14.9565 85.8073 13.781 84.9872 12.9062C84.1397 12.0314 82.8822 11.5393 81.4607 11.5393C79.7658 11.5393 78.3442 12.2501 77.3054 13.0975L77.2507 13.0702V11.84H73.1502V25.29Z" fill="#404659"/>
<path d="M98.4538 24.5792V25.29H102.527V4.4043H98.3718V12.0041L98.3171 12.0314C97.6063 11.7307 96.7862 11.5393 95.7747 11.5393C91.7561 11.5393 88.667 14.6011 88.667 18.8384C88.667 22.9663 91.5921 25.5907 94.9819 25.5907C96.2941 25.5907 97.497 25.1806 98.3991 24.5518L98.4538 24.5792ZM98.3718 21.5174C97.7703 21.9001 96.9502 22.2008 96.0481 22.2008C93.9978 22.2008 92.8496 20.6426 92.8496 18.647C92.8496 16.624 94.0251 14.9838 96.2121 14.9838C97.0322 14.9838 97.7703 15.2025 98.3718 15.5032V21.5174Z" fill="#404659"/>
<path d="M110.412 21.4901V9.29766H111.588C113.802 9.29766 115.688 9.51636 117.083 10.5005C118.559 11.5393 119.379 13.2889 119.379 15.3665C119.379 17.3348 118.641 18.9204 117.465 19.9319C116.235 20.998 114.431 21.4901 111.615 21.4901H110.412ZM106.066 25.29H111.424C115.579 25.29 118.422 24.4972 120.445 22.8569C122.55 21.1347 123.726 18.483 123.726 15.3665C123.726 11.9767 122.359 9.18831 119.926 7.49341C117.875 6.07187 115.142 5.49779 111.615 5.49779H106.066V25.29Z" fill="#404659"/>
<path d="M129.608 18.565C129.608 16.6514 131.056 15.1205 132.943 15.1205C134.829 15.1205 136.278 16.6514 136.278 18.565C136.278 20.4786 134.829 22.0095 132.943 22.0095C131.056 22.0095 129.608 20.4786 129.608 18.565ZM125.452 18.565C125.452 22.5289 128.651 25.5907 132.943 25.5907C137.235 25.5907 140.433 22.5289 140.433 18.565C140.433 14.6011 137.235 11.5393 132.943 11.5393C128.651 11.5393 125.452 14.6011 125.452 18.565Z" fill="#404659"/>
<path d="M154.11 20.7246C152.989 21.5721 151.486 22.0642 150.173 22.0642C147.932 22.0642 146.374 20.6153 146.374 18.565C146.374 16.542 147.904 15.0385 150.119 15.0385C151.404 15.0385 152.716 15.5306 153.919 16.296V12.4414C152.825 11.8947 151.431 11.5393 149.927 11.5393C145.718 11.5393 142.218 14.3551 142.218 18.5923C142.218 22.6382 145.389 25.5907 149.709 25.5907C151.24 25.5907 152.825 25.2626 154.11 24.5518V20.7246Z" fill="#404659"/>
<defs>
<clipPath id="clip0_2260_25573">
<rect width="29.995" height="29.995" fill="white" transform="translate(-0.26178)"/>
</clipPath>
</defs>
</svg>
