<svg width="24" height="24" viewBox="0 0 24 24" fill="none" xmlns="http://www.w3.org/2000/svg">
<path fill-rule="evenodd" clip-rule="evenodd" d="M16.4992 1.19922C16.4992 1.52019 16.5289 1.83629 16.5834 2.14221C16.846 3.5564 17.673 4.77001 18.8219 5.52722C19.6242 6.05884 20.575 6.36478 21.6 6.36478L21.5998 7.19222V10.0759C19.6982 10.0759 17.9353 9.45907 16.4991 8.4159V15.9636C16.4991 19.73 13.4686 22.7992 9.74961 22.7992C8.31351 22.7992 6.97639 22.3377 5.88197 21.5604C4.13892 20.3217 3 18.2755 3 15.9636C3 12.1923 6.0257 9.1281 9.74464 9.13303C10.0566 9.13303 10.3587 9.15814 10.6558 9.1983V10.0759L10.645 10.0812L10.6558 10.0809V12.9897C10.3686 12.8994 10.0616 12.8442 9.74464 12.8442C8.0461 12.8442 6.66447 14.2435 6.66447 15.9636C6.66447 17.1623 7.33794 18.2003 8.31844 18.727C8.3276 18.7396 8.33688 18.7523 8.34621 18.7648L8.36266 18.7867C8.35138 18.7647 8.33835 18.7431 8.32345 18.7219C8.75425 18.9526 9.23953 19.083 9.75458 19.083C11.4134 19.083 12.7704 17.744 12.8297 16.079L12.8347 1.19922H16.4992Z" fill="#F6EFED"/>
</svg>
