<svg width="24" height="24" viewBox="0 0 24 24" fill="none" xmlns="http://www.w3.org/2000/svg">
<g clip-path="url(#clip0_2284_68246)">
<g clip-path="url(#clip1_2284_68246)">
<path d="M22.0059 6.90745C22.0208 7.12259 22.0208 7.33774 22.0208 7.55487C22.0208 14.1709 16.9842 21.8012 7.77451 21.8012V21.7972C5.05394 21.8012 2.38988 21.0219 0.0996094 19.5525C0.495202 19.6001 0.892778 19.6239 1.29135 19.6249C3.54593 19.6269 5.73606 18.8704 7.50979 17.4774C5.36724 17.4368 3.48842 16.0398 2.83208 14.0004C3.58261 14.1451 4.35595 14.1154 5.09261 13.9141C2.75672 13.4422 1.0762 11.3898 1.0762 9.00637C1.0762 8.98456 1.0762 8.96374 1.0762 8.94292C1.7722 9.33058 2.55149 9.54572 3.34863 9.56952C1.14857 8.09918 0.470416 5.17239 1.79897 2.8841C4.34108 6.01216 8.09178 7.91378 12.1181 8.11505C11.7146 6.37602 12.2658 4.55372 13.5666 3.33125C15.5833 1.43557 18.7549 1.53274 20.6506 3.54838C21.772 3.32728 22.8467 2.91583 23.8302 2.33285C23.4564 3.49186 22.6742 4.47639 21.6292 5.102C22.6216 4.985 23.5913 4.71929 24.5044 4.31379C23.8322 5.32111 22.9855 6.19855 22.0059 6.90745Z" fill="#F6EFED"/>
</g>
</g>
<defs>
<clipPath id="clip0_2284_68246">
<rect width="24" height="24" fill="white"/>
</clipPath>
<clipPath id="clip1_2284_68246">
<rect width="24.5882" height="20.2258" fill="white" transform="translate(0 1.82227)"/>
</clipPath>
</defs>
</svg>
